<?xml version="1.0" encoding="UTF-8"?>
<svg id="clear-night" xmlns="http://www.w3.org/2000/svg" viewBox="0 0 1280 1280">
  <defs>
    <style>
      .cls-1 {
        fill: #fefefe;
      }
    </style>
  </defs>

  <g id="moon">
    <path class="cls-1" d="M662.97,832.52h-36.75c-118-8.77-212.63-102.78-221.74-220.8l-.08-36.01c8.47-118.89,103.45-213.68,222.32-222.29l36.06.04c118.04,8.82,212.63,102.8,221.75,220.82l.08,36.02c-8.45,118.51-102.93,213.28-221.64,222.22Z"/>
  </g>

  <g id="stars">
    <path id="star-1" class="cls-1" fill-rule="evenodd" d="M684.66,136.16c-2.74,3.5-5.65,6.77-10.05,7.26-5.78.64-7.99-4.54-11.25-6.77-4.44-.08-8.56,1.04-12.1-2.4-3.33-3.23-1.33-8.45-1.92-11.59-2.59-3.49-6.75-5.2-6.71-10.2s3.18-7.89,7.04-10.92c-.36-3.6-1.44-8.45,1.61-11.72,3.34-3.59,8.33-2.62,12.11-2.21,2.48-3.96,5.11-7.9,10.16-7.91,5.31,0,8.83,3.04,10.96,8.19,3.87-1.16,8.42-1.38,11.66,1.4,3.64,3.13,2.62,8.1,2.29,11.88,3.23,2.74,8.21,5,7.83,10.46-.34,4.92-2.39,9.22-8.54,10.63,2.07,4.11,1.73,8.16-.65,11.23-2.86,3.67-6.99,4.25-12.44,2.67ZM673.05,108.4c-2.79,1.02-3.43,3.62-2.35,5.3.95,1.49,2.64,2.57,4.35,1.92,1.86-.72,3.28-2.74,2.58-4.67-.53-1.47-2.4-3.35-4.57-2.55Z"/>
    <path id="star-2" class="cls-1" fill-rule="evenodd" d="M292.66,165.18c-2.73,3.45-5.66,6.76-10.04,7.24-5.88.64-7.86-4.54-11.34-6.74-4.15-.33-8.61,1.25-12.04-2.49-2.97-3.23-1.83-8.13-1.69-11.67-3.16-3.06-6.8-5.29-6.91-10.03-.12-5.17,3.26-8.01,7.02-10.91-.42-3.71-1.4-8.47,1.61-11.75,3.33-3.64,8.33-2.6,12.11-2.24,2.46-3.89,5.12-7.93,10.16-7.89,5.31.04,8.83,2.97,10.95,8.23,3.93-1.36,8.39-1.21,11.64,1.31,4.08,3.16,1.99,8.36,2.62,11.82,2.36,3.15,8.21,4.87,7.56,10.64-.53,4.78-2.29,9.22-8.59,10.57,2.13,4.12,1.75,8.18-.62,11.23-2.87,3.71-6.98,4.21-12.44,2.69ZM281.05,137.4c-2.79,1.02-3.43,3.62-2.35,5.3.95,1.49,2.64,2.57,4.35,1.92,1.86-.72,3.28-2.74,2.58-4.67-.53-1.47-2.4-3.35-4.57-2.55Z"/>
    <path id="star-3" class="cls-1" fill-rule="evenodd" d="M988.64,201.13c-2.7,3.58-5.65,6.78-10.03,7.28-5.8.66-7.98-4.53-11.27-6.76-4.4-.12-8.58,1.08-12.1-2.42-3.25-3.23-1.44-8.37-1.87-11.61-2.72-3.38-6.75-5.24-6.76-10.15,0-5.2,3.21-7.88,7.03-10.95-.31-3.57-1.44-8.43,1.62-11.71,3.35-3.59,8.32-2.62,12.12-2.22,2.44-3.89,5.12-7.91,10.15-7.9,5.32.02,8.82,3.01,10.96,8.21,3.88-1.23,8.4-1.31,11.65,1.36,3.82,3.15,2.35,8.2,2.44,11.86,2.85,2.91,8.2,4.94,7.71,10.53-.43,4.87-2.35,9.22-8.56,10.61,2.08,4.11,1.75,8.18-.64,11.23-2.87,3.65-6.95,4.3-12.45,2.64ZM977.05,173.4c-2.79,1.02-3.43,3.62-2.35,5.3.95,1.49,2.64,2.57,4.35,1.92,1.86-.72,3.28-2.74,2.58-4.67-.53-1.47-2.4-3.35-4.57-2.55Z"/>
    <path id="star-4" class="cls-1" fill-rule="evenodd" d="M566.66,280.11c-2.74,3.67-5.66,6.78-10.05,7.3-5.8.69-7.98-4.54-11.27-6.75-4.39-.13-8.58,1.09-12.1-2.43-3.23-3.23-1.47-8.34-1.87-11.63-2.72-3.32-6.77-5.23-6.76-10.13,0-5.23,3.16-7.84,7.04-10.96-.34-3.55-1.45-8.42,1.6-11.69,3.35-3.59,8.33-2.62,12.11-2.21,2.48-3.94,5.11-7.92,10.16-7.9,5.33.02,8.81,2.98,10.96,8.22,3.87-1.25,8.4-1.33,11.65,1.35,3.81,3.15,2.37,8.19,2.42,11.86,2.87,2.89,8.2,4.95,7.72,10.53-.42,4.87-2.35,9.22-8.56,10.61,2.09,4.12,1.75,8.16-.64,11.23-2.82,3.62-7.02,4.34-12.42,2.61ZM555.05,252.4c-2.79,1.02-3.43,3.62-2.35,5.3.95,1.49,2.64,2.57,4.35,1.92,1.86-.72,3.28-2.74,2.58-4.67-.53-1.47-2.4-3.35-4.57-2.55Z"/>
    <path id="star-5" class="cls-1" fill-rule="evenodd" d="M1116.67,363.17c-2.77,3.46-5.63,6.81-10.08,7.25-5.69.56-8.05-4.37-11.21-6.85-4.51.16-8.6,1.02-12.11-2.32s-1.32-8.45-1.95-11.6c-2.58-3.45-6.74-5.22-6.71-10.19s3.21-7.93,7.04-10.91c-.37-3.63-1.43-8.45,1.61-11.73,3.34-3.6,8.33-2.62,12.11-2.22,2.48-3.94,5.11-7.91,10.17-7.9,5.29,0,8.85,3,10.94,8.23,3.96-1.37,8.39-1.17,11.64,1.3,4.16,3.16,1.9,8.41,2.67,11.8,2.23,3.22,8.21,4.84,7.52,10.67-.56,4.75-2.27,9.22-8.6,10.56,2.14,4.13,1.75,8.18-.62,11.23-2.86,3.69-7.01,4.23-12.42,2.67ZM1105.05,335.4c-2.79,1.02-3.43,3.62-2.35,5.3.95,1.49,2.64,2.57,4.35,1.92,1.86-.72,3.28-2.74,2.58-4.67-.53-1.47-2.4-3.35-4.57-2.55Z"/>
    <path id="star-6" class="cls-1" fill-rule="evenodd" d="M336.66,384.19c-2.75,3.42-5.65,6.77-10.06,7.23-5.8.61-7.95-4.51-11.28-6.78-4.35-.12-8.58,1.1-12.08-2.41-3.23-3.24-1.46-8.35-1.87-11.62-2.7-3.37-6.8-5.2-6.75-10.16s3.02-7.97,7.12-10.88c-.64-3.73-1.43-8.47,1.52-11.74,3.32-3.67,8.33-2.59,12.12-2.26,2.42-3.86,5.13-7.9,10.15-7.89,5.3.01,8.87,3.08,10.94,8.2,3.93-1.21,8.41-1.29,11.67,1.38,3.83,3.14,2.34,8.21,2.44,11.86,2.84,2.92,8.2,4.94,7.71,10.54-.43,4.86-2.35,9.22-8.57,10.61,2.1,4.12,1.74,8.17-.63,11.23-2.87,3.71-6.99,4.2-12.43,2.7ZM325.05,356.4c-2.79,1.02-3.43,3.62-2.35,5.3.95,1.49,2.64,2.57,4.35,1.92,1.86-.72,3.28-2.74,2.58-4.67-.53-1.47-2.4-3.35-4.57-2.55Z"/>
    <path id="star-7" class="cls-1" fill-rule="evenodd" d="M923.7,401.12c-2.82,3.64-5.67,6.76-10.09,7.29-5.78.68-8-4.55-11.25-6.76-4.46-.09-8.57,1.03-12.11-2.41-3.33-3.23-1.33-8.44-1.92-11.59-2.59-3.48-6.74-5.21-6.72-10.2s3.21-7.93,7.04-10.91c-.37-3.63-1.42-8.45,1.61-11.73,3.34-3.61,8.34-2.6,12.11-2.22,2.48-3.92,5.11-7.92,10.17-7.9s8.89,2.98,10.91,8.24c4.01-1.43,8.4-1.16,11.66,1.29,4.17,3.14,1.9,8.42,2.67,11.8,2.26,3.23,8.21,4.85,7.53,10.67-.56,4.75-2.27,9.22-8.6,10.56,2.14,4.14,1.74,8.16-.62,11.24-2.79,3.64-7.11,4.29-12.39,2.62ZM912.05,373.4c-2.79,1.02-3.43,3.62-2.35,5.3.95,1.49,2.64,2.57,4.35,1.92,1.86-.72,3.28-2.74,2.58-4.67-.53-1.47-2.4-3.35-4.57-2.55Z"/>
    <path id="star-8" class="cls-1" fill-rule="evenodd" d="M128.67,436.15c-2.7,3.62-5.77,6.62-10,7.28-6.1.95-7.81-5.07-11.41-6.52-4.19-.92-8.47,1.15-12.06-2.69-3.08-3.29-1.39-8.28-1.88-11.61-2.54-3.38-6.76-5.19-6.71-10.15s3.16-7.88,7.05-10.93c-.36-3.58-1.45-8.43,1.6-11.71,3.35-3.59,8.32-2.62,12.12-2.22,2.45-3.92,5.12-7.91,10.15-7.9,5.31.01,8.84,3.02,10.94,8.22,3.94-1.34,8.39-1.17,11.64,1.32,4.15,3.17,1.9,8.4,2.67,11.81,2.23,3.21,8.21,4.84,7.52,10.67-.56,4.75-2.27,9.22-8.6,10.56,2.14,4.13,1.75,8.17-.61,11.24-2.84,3.68-7.02,4.24-12.42,2.66ZM117.05,408.4c-2.79,1.02-3.43,3.62-2.35,5.3.95,1.49,2.64,2.57,4.35,1.92,1.86-.72,3.28-2.74,2.58-4.67-.53-1.47-2.4-3.35-4.57-2.55Z"/>
    <path id="star-9" class="cls-1" fill-rule="evenodd" d="M222.65,640.16c-2.72,3.49-5.64,6.77-10.04,7.25-5.78.64-7.99-4.53-11.25-6.77-4.43-.08-8.57,1.04-12.1-2.4-3.33-3.24-1.32-8.43-1.93-11.6-2.57-3.47-6.76-5.2-6.71-10.19s3.14-7.85,7.05-10.94c-.36-3.56-1.46-8.43,1.6-11.7,3.35-3.59,8.32-2.63,12.12-2.22,2.45-3.92,5.11-7.91,10.15-7.9,5.33.01,8.8,3.01,10.97,8.2,3.84-1.17,8.41-1.38,11.65,1.39,3.66,3.14,2.59,8.1,2.31,11.89,3.18,2.75,8.21,4.99,7.82,10.47-.35,4.92-2.39,9.22-8.54,10.63,2.07,4.11,1.74,8.17-.65,11.23-2.87,3.68-6.97,4.25-12.44,2.67ZM211.05,612.4c-2.79,1.02-3.43,3.62-2.35,5.3.95,1.49,2.64,2.57,4.35,1.92,1.86-.72,3.28-2.74,2.58-4.67-.53-1.47-2.4-3.35-4.57-2.55Z"/>
    <path id="star-10" class="cls-1" fill-rule="evenodd" d="M1105.67,684.14c-2.71,3.67-5.79,6.63-10,7.29-6.1.96-7.82-5.08-11.41-6.52-4.2-.92-8.47,1.15-12.07-2.69-3.08-3.28-1.39-8.29-1.87-11.61-2.57-3.39-6.75-5.19-6.72-10.16s3.19-7.93,7.05-10.91c-.37-3.63-1.42-8.45,1.61-11.73,3.34-3.62,8.34-2.6,12.11-2.23,2.5-3.91,5.1-7.93,10.18-7.89s8.89,2.93,10.91,8.26c4.02-1.5,8.41-1.16,11.66,1.27,4.21,3.13,1.86,8.45,2.69,11.79,2.21,3.26,8.21,4.84,7.51,10.69-.56,4.75-2.26,9.22-8.6,10.56,2.14,4.13,1.75,8.17-.61,11.24-2.84,3.67-7.03,4.26-12.42,2.64ZM1094.05,656.4c-2.79,1.02-3.43,3.62-2.35,5.3.95,1.49,2.64,2.57,4.35,1.92,1.86-.72,3.28-2.74,2.58-4.67-.53-1.47-2.4-3.35-4.57-2.55Z"/>
  </g>
</svg>
