<?xml version="1.0" encoding="UTF-8"?>
<svg id="partly-cloudy" xmlns="http://www.w3.org/2000/svg" viewBox="0 0 1280 1280">
  <g id="cloud">
    <path d="M582.26,994.51l-38.03.04c-58.71-3.86-113.15-25.57-159.03-63.34-11.56,3.63-23.12,5.81-35.42,7.56l-11.6.44c-5.15.19-9.19.25-14.32.02l-11.71-.51c-36.48-4.11-70.52-18.4-98.17-42.69l-19.46-19.54c-24.42-28.5-38.79-63.33-42.22-100.67l.06-30.26c7.49-88.65,79.1-158.2,167.64-163.7,9.67-17.5,21.07-33.46,34.48-48.4l23.95-24.02c47.48-41.15,103.06-64.55,165.79-69.08l28.75-.37c72.03-113.07,226.6-134.59,327.04-46.02,31.64,27.9,54.15,65.22,65.22,105.81,3.42,12.55,5.75,24.08,6.33,36.82l.89,19.52-.73,18.64c-1.67,13.7-3.66,26.83-7.67,40.01,25.2,18.25,45.26,41.74,58.25,69.84l119.16,73.9-116.61,72.35c-10.04,23.53-24.27,43.61-43.09,60.92-28.21,26.7-64.26,42.65-102.86,46.94l-11.77.5c-4.83.21-9.38,1.64-14.15-.33l-11.77-.21c-28.02-3.28-54.39-12.27-78.49-27.95-21.81,23.27-47.62,41.43-76.25,55.74-32.6,16.3-67.32,25.56-104.17,28.05ZM843.72,582.44l34.75.11c11.23,1.09,21.82,2.95,32.97,6.79,14.99-67.74-15.71-137.06-76.21-171.85-24.18-13.91-51.44-20.82-79.65-20.97l-14.61.68c-40.05,3.83-76.6,22.27-103.86,52.4,73.77,20.66,136.2,69.99,172.74,139.14,10.81-2.99,21.75-6.34,33.88-6.3ZM591.77,967.05c53.5-6,102.38-28.81,141.71-64.49l15.53-15.51c3.1-3.09,5.93-6.17,9.87-6.89,4.48-.82,7.59.96,11.67,3.87,42.82,30.58,97.6,38.18,148.83,17.04,42.05-17.35,77.1-55.68,88.7-103.39l-.06-74.67c-5.99-23.33-16.82-44.37-32.7-62.27-4.37-6.01-9.44-10.25-15-15.12-24.21-21.19-54.11-33.73-86.24-36.87-23.32-2.28-45.36,1.4-67.47,8.83-5.18,1.74-12.02-.5-14.55-5.65-14.73-29.89-33.76-57.07-58.45-79.43-39.77-36.03-89.08-58.83-142.45-64.61l-16.16-1.16c-8.24-.59-15.72-.58-23.97,0l-16.17,1.15c-53.32,5.82-102.7,28.55-142.43,64.61-21.13,19.18-38.29,41.86-51.83,66.91-3.43,6.34-8.12,9.59-15.83,8.65l-7.81.9c-39.1,3.16-75.72,22.23-101.36,51.72-21.53,24.77-34.19,55.46-36.89,88.29-4.34,52.86,20.81,106.54,65.1,136.85,41.93,28.69,92.64,34.67,138.73,18.16,7.44-2.66,11.54.07,16.91,4.62,38.46,32.65,85.24,53.03,135.42,58.54l16.18,1.15c8.24.58,15.73.59,23.96,0l16.79-1.21Z" fill="#fefefe"/>
  </g>
  <g id="sparkles">
    <path id="sparkle-1" fill="#fefefe" fill-rule="evenodd" d="M856.33,134.06c-1.6,39.73-26.75,72.45-64.23,84.83l-28.68,44.43c-.38.59-1.45,1.5-1.93,1.52s-1.48-.95-1.86-1.57l-26.86-43.99c-1.98-3.24-6.52-3.76-9.67-5.35-29.27-14.84-48.68-42.5-51.65-75.33-5.25-58.1,44.48-106.88,103.62-100.3,22.2,2.47,42.52,13.76,57.42,30.03,16.48,17.99,24.81,41.65,23.84,65.73ZM788.02,76.91c-8.93-4.13-17.98-5.55-28.14-4.99-26.87,1.47-48.53,21.36-53.69,46.97s6.97,51.49,31.04,64.12c20.84,10.94,47.14,7.67,64.88-7.63,12.55-10.83,19.08-24.89,20.46-40.92,2.06-24-11.92-47.1-34.53-57.55Z"/>
    <path id="sparkle-2" fill="#fefefe" fill-rule="evenodd" d="M548.4,349.86l-52.66-12.96c-29.69,14.13-67.65,10.32-93.89-9.6-41.71-31.66-50.64-88.74-19.17-130.41,30.98-41.02,88-49.05,129.76-18.33,33.71,24.8,46.23,70.78,29.91,109.99-1.32,3.17-3.3,5.53-2.44,9.58l10.19,47.88c.18.87-.26,4.21-1.69,3.85ZM515.29,260.08c3.41-25.23-11.45-51.6-35.16-61.38-21.44-8.84-44.44-5.37-61.22,8.91-24.92,21.2-28.15,57.05-7.81,82.5,7.43,9.29,17.86,15.79,29.55,19.12,34.45,9.82,69.74-12.88,74.64-49.15Z"/>
    <path id="sparkle-3" fill="#fefefe" fill-rule="evenodd" d="M1215.89,651.87c-49.03,20.52-106.17-5.53-122.63-56.12l-32.54-21.44c-4.92-3.24-10.05-5.57-14.43-10.55l47.39-29.33c9.72-24.71,28.3-44.58,53.31-54.36,30.84-12.05,64.69-7.04,90.87,13.23,32.05,24.82,44.71,70.61,28.56,108.23-9.71,22.61-27.47,40.7-50.52,50.34ZM1138.17,606.79c18.05,19.11,48.05,24.11,71.87,10.43,23.05-13.24,34.7-40.34,27.16-67.4-6.85-24.59-30.69-43.13-57.55-42.28-14.81.47-27.71,5.63-38.71,15.38-24.01,21.29-25.31,60.01-2.76,83.88Z"/>
    <path id="sparkle-4" fill="#fefefe" fill-rule="evenodd" d="M1019.16,342.77l-50.03,10.5c-.96.2-2.92-.14-3.56-.39-.85-.33-.92-2.5-.58-3.87l12.4-49.92c-15.68-34.15-9.43-75.49,16.68-102.03l5.47-5.56c36-32.33,90.77-31.6,125.51,1.58l8.44,9.17c31.55,39.14,26.26,95.81-11.92,128.57-27.86,23.92-68.23,29.79-102.41,11.94ZM1120.02,255.85c-2.29-33.75-32.55-58.24-66.82-53.58-27.75,3.78-48.29,26.09-50.28,53.56-2.62,36.12,26.23,65.04,62.16,63.28l9.61-1.33c28.24-6.59,47.37-31.89,45.33-61.92Z"/>
  </g>
</svg>
