<?xml version="1.0" encoding="UTF-8"?>
<svg id="partly-cloudy-night" xmlns="http://www.w3.org/2000/svg" viewBox="0 0 1280 1280">
  <g id="cloud">
    <path d="M550.58,998.56c-59.15-3.8-113.62-25.68-159.39-63.34-11.55,3.62-23.12,5.81-35.42,7.56l-11.6.44c-5.15.19-9.19.25-14.32.02l-11.71-.51c-36.48-4.11-70.52-18.4-98.17-42.69l-19.46-19.54c-24.42-28.5-38.79-63.33-42.22-100.67l.06-30.26c7.49-88.65,79.1-158.2,167.64-163.7,9.67-17.5,21.07-33.46,34.48-48.4l23.95-24.02c47.13-40.88,102.7-64.43,164.93-69l17.03-.19c13.16-114.08,106.17-203.46,221.34-211.85l36.09-.07c118.11,9.23,212.65,102.8,221.74,220.96l.02,36.53c-3.78,52.73-24.96,102.31-59.96,141.57,17.03,15.23,30.18,32.26,40.09,51.85l127.73,79.27-125.12,77.64c-9.53,21.37-23.08,39.25-40.04,55.15-28.3,26.96-64.53,43.11-103.38,47.41l-11.77.5c-4.83.21-9.38,1.64-14.15-.33l-11.77-.21c-28.02-3.28-54.39-12.27-78.49-27.95-21.81,23.28-47.63,41.42-76.25,55.75-32.85,16.44-67.96,25.67-104.65,28.09h-37.2ZM597.77,971.05c53.5-5.99,102.37-28.81,141.71-64.49l15.53-15.51c2.94-2.93,5.47-5.83,9.08-6.72,4.3-1.05,7.99.36,11.36,2.85,63.5,46.84,152.33,37.57,204.77-21.35,50.7-56.96,51.49-143.21,1.21-201.18-25.83-29.78-61.97-48.13-101.38-51.91-23.41-2.24-45.27,1.36-67.46,8.82-5.18,1.74-12.02-.51-14.55-5.65-14.73-29.89-33.76-57.07-58.45-79.43-39.77-36.03-89.08-58.83-142.45-64.61l-16.16-1.16c-8.24-.59-15.72-.58-23.97,0l-16.17,1.15c-53.32,5.82-102.7,28.55-142.43,64.61-21.13,19.18-38.29,41.86-51.83,66.91-3.43,6.34-8.12,9.59-15.83,8.65l-7.81.9c-39.1,3.16-75.72,22.23-101.36,51.72-21.53,24.77-34.19,55.46-36.89,88.29-4.34,52.86,20.81,106.54,65.1,136.85,41.93,28.69,92.64,34.67,138.73,18.16,7.44-2.66,11.54.07,16.91,4.62,38.46,32.65,85.24,53.03,135.42,58.54l16.18,1.15c8.24.58,15.73.59,23.96,0l16.79-1.21Z" fill="#fefefe"/>
  </g>
</svg>
