<?xml version="1.0" encoding="UTF-8"?>
<svg id="Layer_1" data-name="Layer 1" xmlns="http://www.w3.org/2000/svg" viewBox="0 0 1024 1024">
  <path d="M525.13,655.58l-25.61.08c-75.15-6.66-131.78-69.95-131.75-144.14.03-74.27,56.55-137.54,131.76-144.15h24.94c74.8,6.61,131.31,69.36,131.75,143.17.45,74.29-55.67,138.05-131.1,145.05ZM517.95,605.34c46.66-2.95,83.8-39.79,87.39-86.38,4.41-57.22-42.14-104.99-99.29-101.33-46.65,2.99-83.81,39.78-87.38,86.4-4.38,57.18,41.98,104.92,99.28,101.3Z" style="fill: #fefefe;"/>
  <path d="M328.71,514l-25.62,16.25c-3.61,12.26-9.75,22.99-19.5,31.29-24.2,20.62-59.24,21.02-83.57.45-29.65-25.07-29.66-70.91,0-95.98,24.32-20.56,59.39-20.19,83.56.46,9.79,8.25,15.87,19.05,19.51,31.27l25.61,16.26ZM274.77,513.56c-.27-20.09-19.26-35.01-38.08-31.93-16.61,2.72-28.65,16.21-28.45,32.82s12.27,29.3,28.43,31.92c19.2,3.11,38.36-12.33,38.09-32.81Z" style="fill: #fefefe;"/>
  <path d="M382.14,641.85l-6.18,28.38c12.42,20.47,12.47,45.38-.4,66.29-11.72,19.04-33.88,30.82-57.55,29.58s-44.81-15.88-54.19-36.21c-10.76-23.31-6.95-49.42,9.6-68.41,20.26-23.25,53.78-27.99,80.26-13.2l28.46-6.44ZM354.77,702.56c-.27-20.08-19.25-35.01-38.1-31.93-16.46,2.69-28.65,16.35-28.43,32.8s12.27,29.31,28.44,31.94c19.19,3.11,38.36-12.32,38.09-32.81Z" style="fill: #fefefe;"/>
  <path d="M642.02,382.15l6.69-31.01c-6.06-10.17-8.41-21.11-7.83-33.2,1.84-38.53,37.13-66,74.61-59.11,37.1,6.81,60.14,44.57,48.9,80.96-11.09,35.91-51.9,54.96-86.79,38.53-4.2-1.98-6.91-2.8-11.96-1.63l-23.61,5.47ZM701.01,288.46c-19.1,1.77-31.56,18.7-29.5,36.36s17.89,30.41,35.5,28.77c17.96-1.67,31.28-17.62,29.57-35.6-1.66-17.45-16.9-31.26-35.57-29.53Z" style="fill: #fefefe;"/>
  <path d="M695.45,514l26.45-16.25c8.36-31.05,37.86-50.46,69.31-46.44s54.81,30.74,55.04,62.22c.23,31.58-22.99,58.65-54.2,63.05-31.73,4.48-61.7-14.98-70.14-46.33l-26.45-16.25ZM780.01,481.46c-19.1,1.77-31.56,18.7-29.5,36.36,2.05,17.64,17.89,30.41,35.5,28.77,17.96-1.67,31.28-17.62,29.57-35.6-1.66-17.45-16.9-31.26-35.57-29.53Z" style="fill: #fefefe;"/>
  <path d="M512.61,328.17l-16.09-26.08c-31.11-8.57-50.61-38.39-46.11-70.15,4.43-31.23,31.51-54.42,63.07-54.18,31.51.24,58.23,23.83,62.21,55.06,4.05,31.78-15.84,61.54-47.33,69.5l-15.76,25.85ZM510.01,208.46c-19.1,1.77-31.56,18.7-29.5,36.36s17.89,30.41,35.5,28.77c17.96-1.67,31.28-17.62,29.57-35.6-1.66-17.45-16.9-31.26-35.57-29.53Z" style="fill: #fefefe;"/>
  <path d="M528.21,720.61c31.72,8.08,51.52,37.78,47.48,69.58s-30.7,54.81-62.2,55.05c-31.56.24-58.64-22.96-63.07-54.18-4.5-31.75,14.99-61.59,46.12-70.14l15.9-26.27,15.77,25.96ZM510.01,749.46c-19.1,1.77-31.56,18.7-29.5,36.36,2.05,17.64,17.89,30.41,35.5,28.77,17.96-1.67,31.28-17.62,29.57-35.6-1.66-17.45-16.9-31.26-35.57-29.53Z" style="fill: #fefefe;"/>
  <path d="M380.13,383.01l-29.37-6.45c-27.46,16.32-62.77,8.9-81.84-15.94s-17.17-60.53,5.11-83.08c22.25-22.51,57.61-25.1,83.01-6.07,25.26,18.93,33.01,54.58,16.51,82.29l6.58,29.24ZM316.01,289.46c-19.1,1.77-31.56,18.7-29.5,36.36,2.05,17.64,17.89,30.41,35.5,28.77s31.28-17.62,29.57-35.6-16.9-31.26-35.57-29.53Z" style="fill: #fefefe;"/>
  <path d="M646.95,672.82l-6.29-29.04,29.17,6.48c10.6-6.46,21.84-8.94,34.2-8.38,34.32,1.55,60.48,30.17,60.21,63.64-.27,34.13-27.72,61.94-61.78,62.71-33.88.77-63.03-25.53-64.58-60.18-.56-12.58,1.86-24.07,9.07-35.22ZM698.01,672.46c-19.1,1.77-31.56,18.7-29.5,36.36,2.05,17.64,17.89,30.41,35.5,28.77,17.96-1.67,31.28-17.62,29.57-35.6s-16.9-31.26-35.57-29.53Z" style="fill: #fefefe;"/>
</svg>
