<?xml version="1.0" encoding="UTF-8"?>
<svg id="ojo-word-logo" xmlns="http://www.w3.org/2000/svg" xmlns:xlink="http://www.w3.org/1999/xlink" viewBox="0 0 307.2 307.2">
  <defs>
    <linearGradient id="j-gradient" x1="-205.08" y1="1133.56" x2="-204.66" y2="1709.56" gradientTransform="translate(193.29 -166.43) scale(.24)" gradientUnits="userSpaceOnUse">
      <stop offset="0"   stop-color="#4feec3"/>
      <stop offset=".41" stop-color="#4feec3"/>
      <stop offset=".74" stop-color="#9ede55"/>
      <stop offset="1"   stop-color="#65ba02"/>
    </linearGradient>
  </defs>

  <!-- Top arc connecting the two O's -->
  <g id="arc">
    <path d="M245.55,112.43c.03.64-.21.63-.46.04-2.79-6.18-13.4-8.35-19.91-7.48-5.24.69-10.54,2.22-13.57,6.58-3.49-5.35-12.64-7.16-18.56-6.62s-12.37,2.28-15.11,7.74c-1.4-3.15-4.15-4.61-6.9-5.85l-.94.12c-5.14-1.9-11.04-1.89-16.32-.65l-.83-.23c-3.63,1.28-7.14,2.62-9.05,6.55-1.18-2.26-2.82-3.86-5.12-4.98-7.33-3.56-16.32-3.58-23.65-.06-2.25,1.08-3.87,2.54-5.16,4.7-1.51-2.06-3.3-3.76-5.76-4.8-7.3-3.1-15.74-3.05-22.86.41-2.17,1.05-3.82,2.64-4.78,4.56-.08.67-.42.61-.57-.03,3.14-14.04,9.84-27.1,19.58-37.96l7.19-7.19c14.5-12.99,32.82-20.52,52.2-21.87l4.27-.09.1-3.79c.02-.85.88-1.5,1.34-2.37l1.04,1.76c.18.31.32,2.75.37,4.42l4.3.07c19.38,1.35,37.7,8.88,52.2,21.87l7.19,7.19c9.73,10.87,16.44,23.93,19.77,37.96Z" fill="#47efb7"/>
  </g>

  <!-- Left O -->
  <g id="letter-o-left">
    <path d="M76,112.43l.57.03,5.17.09c10.43.85,20.35,4.35,28.88,10.39,14.02,9.92,22.97,25.42,24.29,42.6l.02,8.63c-2.03,28.51-24.81,51.24-53.32,53.31h-8.65c-28.31-2.12-50.95-24.63-53.19-52.96l-.02-8.63c2.14-29.63,26.57-52.83,56.25-53.46ZM119.73,167.21c-1.51-23.36-21.91-41.03-45.15-39.47-23.52,1.58-41.15,21.66-39.63,45.11,1.37,21.11,18.34,38.06,39.45,39.45,25.84,1.69,46.98-19.4,45.33-45.08Z" fill-rule="evenodd"/>
  </g>

  <!-- Right O -->
  <g id="letter-o-right">
    <path d="M245.09,112.48l.46-.04c29.49.74,53.81,23.77,56.04,53.22v8.52c-2.02,28.51-24.8,51.24-53.31,53.31h-8.65c-28.31-2.12-50.99-24.66-53.18-52.97l-.02-8.63c2.03-28.53,24.82-51.23,53.31-53.32l5.35-.08ZM286.4,167.21c-1.51-23.36-21.91-41.03-45.15-39.47-23.52,1.58-41.15,21.66-39.63,45.11,1.37,21.11,18.34,38.06,39.45,39.45,25.84,1.69,46.98-19.4,45.33-45.08Z" fill-rule="evenodd"/>
  </g>

  <!-- J bar: gradient body + left/right edge highlights -->
  <g id="letter-j">
    <path id="j-bar"        fill="url(#j-gradient)" d="M171.03,106.85l-.04.35c-.23,18.67-.21,38.16-.02,56.83l-.1,57.38c0,4.39-2.07,8.28-4.68,11.39l-2.08,2.08-2.29,1.8c-3.57,2.37-7.54,3.86-11.76,4.73-.29.06-.61.27-.67.44-.23.63,1.52,1.31,2.23,2.55-2.22.51-4.35.04-6.47-.64l-10.35-3.29c-6.81-2.17-12.23-5.12-15.87-11.47-.86-1.88-1.63-3.85-1.64-5.98l-.04-8.88h17.75s.07,6.63.07,6.63c.08,7.73,7.57,12.08,15.27,11.86,1.57-.04,3.06.04,4.64-.63l-7.32-1.45c-.1-.44.41-.8.63-.93,2.36-1.4,4.66-5.15,4.67-7.63l.03-59.16c.22-18.49.21-37.85,0-56.36l-.05-.39c2.97-1.05,6.1-1.09,9.41-1.05,3.04.03,6.03.63,8.68,1.81Z"/>
    <path id="j-edge-right"  fill="#4feec3" d="M170.98,164.03c-.08,0-.23-.06-.23-.3v-56.02c0-.37.08-.47.25-.52l-.02,56.83Z"/>
    <path id="j-edge-left"   fill="#4feec3" d="M153,162.83v-56.36c.09,0,.24.06.24.3v55.76c0,.24-.15.3-.24.3Z"/>
  </g>

  <!-- Teardrop accent dots below each O -->
  <g id="dots">
    <path id="dot-left"  fill="#56b107" d="M81.32,247.36c8.93,2.52,14.27,11.03,13.03,19.96s-8.81,15.41-17.73,15.47-16.6-6.43-17.94-15.26,3.93-17.47,12.69-20.07l5-8.14,4.94,8.04ZM75,254.14c-5.69.79-9.7,5.93-9.19,11.57s5.18,9.83,10.8,9.77,10.19-4.39,10.59-9.97c.48-6.71-5.32-12.33-12.2-11.38Z"/>
    <path id="dot-right" fill="#56b107" d="M248.47,247.36c8.93,2.52,14.27,11.03,13.03,19.96s-8.81,15.41-17.73,15.47c-8.93.06-16.6-6.43-17.94-15.26-1.35-8.92,3.93-17.47,12.69-20.07l5-8.14,4.94,8.04ZM245.07,254.11l-2.92.02c-5.69.79-9.7,5.93-9.19,11.57.5,5.56,5.18,9.83,10.8,9.77,5.59-.06,10.19-4.39,10.59-9.97s-3.56-10.6-9.28-11.4Z"/>
  </g>
</svg>
